<mxfile host="app.diagrams.net" modified="2020-10-16T02:48:00.195Z" agent="5.0 (Macintosh)" etag="dLsfivTI_dRNtEM5HsVw" version="13.7.9" type="github">
  <diagram name="Page-1" id="38b20595-45e3-9b7f-d5ca-b57f44c5b66d">
    <mxGraphModel dx="3587" dy="2120" grid="1" gridSize="10" guides="0" tooltips="1" connect="1" arrows="1" fold="1" page="1" pageScale="1" pageWidth="1100" pageHeight="850" background="#ffffff" math="0" shadow="0">
      <root>
        <mxCell id="0" />
        <mxCell id="1" parent="0" />
        <mxCell id="FIgywxml-i0kktG_qFRa-83" value="" style="rounded=0;whiteSpace=wrap;html=1;shadow=0;glass=0;sketch=0;strokeWidth=1;rotation=90;fillColor=#080808;opacity=40;strokeColor=none;" vertex="1" parent="1">
          <mxGeometry x="-182.5" y="350.5" width="650" height="105" as="geometry" />
        </mxCell>
        <mxCell id="FIgywxml-i0kktG_qFRa-50" value="" style="rounded=0;whiteSpace=wrap;html=1;fillColor=#33FF99;" vertex="1" parent="1">
          <mxGeometry x="357.88" y="766" width="230" height="60" as="geometry" />
        </mxCell>
        <mxCell id="FIgywxml-i0kktG_qFRa-7" value="" style="verticalLabelPosition=bottom;html=1;verticalAlign=top;align=center;shape=mxgraph.floorplan.room;fillColor=#FFF2CC;" vertex="1" parent="1">
          <mxGeometry x="197.88" y="80" width="630" height="520" as="geometry" />
        </mxCell>
        <mxCell id="FIgywxml-i0kktG_qFRa-9" value="" style="verticalLabelPosition=bottom;html=1;verticalAlign=top;align=center;shape=mxgraph.floorplan.wallU;fillColor=#000000;rotation=-180;" vertex="1" parent="1">
          <mxGeometry x="197.88" y="601" width="630" height="236" as="geometry" />
        </mxCell>
        <mxCell id="FIgywxml-i0kktG_qFRa-10" value="" style="verticalLabelPosition=bottom;html=1;verticalAlign=top;align=center;shape=mxgraph.floorplan.stairs;direction=south;" vertex="1" parent="1">
          <mxGeometry x="680" y="244" width="137.88" height="256" as="geometry" />
        </mxCell>
        <mxCell id="FIgywxml-i0kktG_qFRa-11" value="" style="verticalLabelPosition=bottom;html=1;verticalAlign=top;align=center;shape=mxgraph.floorplan.sink_double;rotation=-180;strokeColor=#666666;fontColor=#333333;fillColor=#B3B3B3;" vertex="1" parent="1">
          <mxGeometry x="432.88" y="774" width="80" height="43" as="geometry" />
        </mxCell>
        <mxCell id="FIgywxml-i0kktG_qFRa-14" value="" style="verticalLabelPosition=bottom;html=1;verticalAlign=top;align=center;shape=mxgraph.floorplan.range_1;fillColor=#4D4D4D;strokeColor=#999999;" vertex="1" parent="1">
          <mxGeometry x="367.88" y="601" width="80" height="79" as="geometry" />
        </mxCell>
        <mxCell id="FIgywxml-i0kktG_qFRa-16" value="" style="verticalLabelPosition=bottom;html=1;verticalAlign=top;align=center;shape=mxgraph.floorplan.table;fillColor=#E6E6E6;" vertex="1" parent="1">
          <mxGeometry x="207.88" y="602" width="160" height="58" as="geometry" />
        </mxCell>
        <mxCell id="FIgywxml-i0kktG_qFRa-17" value="" style="verticalLabelPosition=bottom;html=1;verticalAlign=top;align=center;shape=mxgraph.floorplan.plant;fillColor=#d5e8d4;strokeColor=#82b366;" vertex="1" parent="1">
          <mxGeometry x="212.88" y="517" width="60" height="68" as="geometry" />
        </mxCell>
        <mxCell id="FIgywxml-i0kktG_qFRa-18" value="" style="verticalLabelPosition=bottom;html=1;verticalAlign=top;align=center;shape=mxgraph.floorplan.fireplace;rotation=-90;fillColor=#F19C99;" vertex="1" parent="1">
          <mxGeometry x="93.50999999999999" y="304.38" width="160" height="69.25" as="geometry" />
        </mxCell>
        <mxCell id="FIgywxml-i0kktG_qFRa-19" value="" style="verticalLabelPosition=bottom;html=1;verticalAlign=top;align=center;shape=mxgraph.floorplan.chair;rotation=-90;strokeWidth=2;fillColor=#572C00;" vertex="1" parent="1">
          <mxGeometry x="594" y="366.5" width="41" height="52" as="geometry" />
        </mxCell>
        <mxCell id="FIgywxml-i0kktG_qFRa-20" value="" style="verticalLabelPosition=bottom;html=1;verticalAlign=top;align=center;shape=mxgraph.floorplan.chair;rotation=-90;strokeWidth=2;fillColor=#572C00;" vertex="1" parent="1">
          <mxGeometry x="594" y="420" width="41" height="52" as="geometry" />
        </mxCell>
        <mxCell id="FIgywxml-i0kktG_qFRa-21" value="" style="verticalLabelPosition=bottom;html=1;verticalAlign=top;align=center;shape=mxgraph.floorplan.table;rotation=90;strokeWidth=2;fillColor=#572C00;" vertex="1" parent="1">
          <mxGeometry x="594" y="386.5" width="110" height="59" as="geometry" />
        </mxCell>
        <mxCell id="FIgywxml-i0kktG_qFRa-23" value="" style="verticalLabelPosition=bottom;html=1;verticalAlign=top;align=center;shape=mxgraph.floorplan.doorRight;aspect=fixed;" vertex="1" parent="1">
          <mxGeometry x="685.88" y="80" width="100" height="106.26" as="geometry" />
        </mxCell>
        <mxCell id="FIgywxml-i0kktG_qFRa-24" value="" style="verticalLabelPosition=bottom;html=1;verticalAlign=top;align=center;shape=mxgraph.floorplan.wall;rotation=90;fillColor=#FFF2CC;" vertex="1" parent="1">
          <mxGeometry x="742.88" y="145" width="130" height="10" as="geometry" />
        </mxCell>
        <mxCell id="FIgywxml-i0kktG_qFRa-25" value="" style="verticalLabelPosition=bottom;html=1;verticalAlign=top;align=center;shape=mxgraph.floorplan.wall;fillColor=#FFF2CC;" vertex="1" parent="1">
          <mxGeometry x="812.88" y="205" width="10" height="10" as="geometry" />
        </mxCell>
        <mxCell id="FIgywxml-i0kktG_qFRa-26" value="" style="verticalLabelPosition=bottom;html=1;verticalAlign=top;align=center;shape=mxgraph.floorplan.wallU;fillColor=#000000;rotation=90;" vertex="1" parent="1">
          <mxGeometry x="749.75" y="665.74" width="247.02" height="96.75" as="geometry" />
        </mxCell>
        <mxCell id="FIgywxml-i0kktG_qFRa-27" value="" style="verticalLabelPosition=bottom;html=1;verticalAlign=top;align=center;shape=mxgraph.floorplan.wallU;fillColor=#000000;rotation=-90;" vertex="1" parent="1">
          <mxGeometry x="93" y="722.13" width="108.5" height="121.25" as="geometry" />
        </mxCell>
        <mxCell id="FIgywxml-i0kktG_qFRa-28" value="" style="verticalLabelPosition=bottom;html=1;verticalAlign=top;align=center;shape=mxgraph.floorplan.window;rotation=-180;" vertex="1" parent="1">
          <mxGeometry x="226.88" y="827" width="75" height="10" as="geometry" />
        </mxCell>
        <mxCell id="FIgywxml-i0kktG_qFRa-29" value="" style="verticalLabelPosition=bottom;html=1;verticalAlign=top;align=center;shape=mxgraph.floorplan.window;rotation=-180;" vertex="1" parent="1">
          <mxGeometry x="710.88" y="827" width="75" height="10" as="geometry" />
        </mxCell>
        <mxCell id="FIgywxml-i0kktG_qFRa-30" value="" style="verticalLabelPosition=bottom;html=1;verticalAlign=top;align=center;shape=mxgraph.floorplan.window;rotation=-90;" vertex="1" parent="1">
          <mxGeometry x="164.88" y="666" width="75" height="10" as="geometry" />
        </mxCell>
        <mxCell id="FIgywxml-i0kktG_qFRa-31" value="" style="verticalLabelPosition=bottom;html=1;verticalAlign=top;align=center;shape=mxgraph.floorplan.window;rotation=-90;" vertex="1" parent="1">
          <mxGeometry x="164.88" y="463" width="75" height="10" as="geometry" />
        </mxCell>
        <mxCell id="FIgywxml-i0kktG_qFRa-32" value="" style="verticalLabelPosition=bottom;html=1;verticalAlign=top;align=center;shape=mxgraph.floorplan.window;rotation=-90;" vertex="1" parent="1">
          <mxGeometry x="164.88" y="539" width="75" height="10" as="geometry" />
        </mxCell>
        <mxCell id="FIgywxml-i0kktG_qFRa-33" value="" style="verticalLabelPosition=bottom;html=1;verticalAlign=top;align=center;shape=mxgraph.floorplan.window;rotation=0;" vertex="1" parent="1">
          <mxGeometry x="300" y="80" width="105" height="10" as="geometry" />
        </mxCell>
        <mxCell id="FIgywxml-i0kktG_qFRa-34" value="" style="verticalLabelPosition=bottom;html=1;verticalAlign=top;align=center;shape=mxgraph.floorplan.refrigerator;direction=west;fillColor=#000000;" vertex="1" parent="1">
          <mxGeometry x="587.88" y="765" width="60" height="62" as="geometry" />
        </mxCell>
        <mxCell id="FIgywxml-i0kktG_qFRa-35" value="" style="verticalLabelPosition=bottom;html=1;verticalAlign=top;align=center;shape=mxgraph.floorplan.opening;rotation=90;" vertex="1" parent="1">
          <mxGeometry x="797.88" y="626" width="50" height="10" as="geometry" />
        </mxCell>
        <mxCell id="FIgywxml-i0kktG_qFRa-36" value="" style="verticalLabelPosition=bottom;html=1;verticalAlign=top;align=center;shape=mxgraph.floorplan.opening;" vertex="1" parent="1">
          <mxGeometry x="487.88" y="590" width="110" height="10" as="geometry" />
        </mxCell>
        <mxCell id="FIgywxml-i0kktG_qFRa-37" value="" style="verticalLabelPosition=bottom;html=1;verticalAlign=top;align=center;shape=mxgraph.floorplan.doorLeft;aspect=fixed;direction=north;" vertex="1" parent="1">
          <mxGeometry x="197.88" y="742" width="85" height="80" as="geometry" />
        </mxCell>
        <mxCell id="FIgywxml-i0kktG_qFRa-38" value="" style="verticalLabelPosition=bottom;html=1;verticalAlign=top;align=center;shape=mxgraph.floorplan.doorLeft;aspect=fixed;direction=south;" vertex="1" parent="1">
          <mxGeometry x="10" y="742" width="85" height="80" as="geometry" />
        </mxCell>
        <mxCell id="FIgywxml-i0kktG_qFRa-40" value="" style="rounded=0;whiteSpace=wrap;html=1;" vertex="1" parent="1">
          <mxGeometry x="680" y="500" width="137.88" height="90" as="geometry" />
        </mxCell>
        <mxCell id="FIgywxml-i0kktG_qFRa-42" value="" style="verticalLabelPosition=bottom;html=1;verticalAlign=top;align=center;shape=mxgraph.floorplan.doorRight;aspect=fixed;direction=south;" vertex="1" parent="1">
          <mxGeometry x="594" y="508" width="85" height="80" as="geometry" />
        </mxCell>
        <mxCell id="FIgywxml-i0kktG_qFRa-43" value="" style="verticalLabelPosition=bottom;html=1;verticalAlign=top;align=center;shape=mxgraph.floorplan.wall;fillColor=#000000;" vertex="1" parent="1">
          <mxGeometry x="817.88" y="705" width="100" height="10" as="geometry" />
        </mxCell>
        <mxCell id="FIgywxml-i0kktG_qFRa-44" value="" style="verticalLabelPosition=bottom;html=1;verticalAlign=top;align=center;shape=mxgraph.floorplan.room;fillColor=#FFF2CC;" vertex="1" parent="1">
          <mxGeometry x="817.88" y="80" width="630" height="520" as="geometry" />
        </mxCell>
        <mxCell id="FIgywxml-i0kktG_qFRa-45" value="" style="verticalLabelPosition=bottom;html=1;verticalAlign=top;align=center;shape=mxgraph.floorplan.window;rotation=0;" vertex="1" parent="1">
          <mxGeometry x="1247.88" y="80" width="105" height="10" as="geometry" />
        </mxCell>
        <mxCell id="FIgywxml-i0kktG_qFRa-46" value="" style="verticalLabelPosition=bottom;html=1;verticalAlign=top;align=center;shape=mxgraph.floorplan.window;rotation=0;" vertex="1" parent="1">
          <mxGeometry x="847.88" y="80" width="105" height="10" as="geometry" />
        </mxCell>
        <mxCell id="FIgywxml-i0kktG_qFRa-47" value="" style="verticalLabelPosition=bottom;html=1;verticalAlign=top;align=center;shape=mxgraph.floorplan.window;rotation=90;" vertex="1" parent="1">
          <mxGeometry x="1390.88" y="203" width="105" height="10" as="geometry" />
        </mxCell>
        <mxCell id="FIgywxml-i0kktG_qFRa-48" value="" style="rounded=0;whiteSpace=wrap;html=1;fillColor=#572C00;" vertex="1" parent="1">
          <mxGeometry x="487.88" y="602" width="110" height="28" as="geometry" />
        </mxCell>
        <mxCell id="FIgywxml-i0kktG_qFRa-49" value="" style="rounded=0;whiteSpace=wrap;html=1;rotation=90;" vertex="1" parent="1">
          <mxGeometry x="843.13" y="636.25" width="105" height="32.5" as="geometry" />
        </mxCell>
        <mxCell id="FIgywxml-i0kktG_qFRa-51" value="" style="ellipse;whiteSpace=wrap;html=1;fillColor=#572C00;" vertex="1" parent="1">
          <mxGeometry x="327.88" y="92" width="52.5" height="33.74" as="geometry" />
        </mxCell>
        <mxCell id="FIgywxml-i0kktG_qFRa-52" value="" style="rounded=0;whiteSpace=wrap;html=1;" vertex="1" parent="1">
          <mxGeometry x="208" y="90.00000000000003" width="90" height="30" as="geometry" />
        </mxCell>
        <mxCell id="FIgywxml-i0kktG_qFRa-53" value="" style="rounded=0;whiteSpace=wrap;html=1;rotation=90;" vertex="1" parent="1">
          <mxGeometry x="177.88" y="150" width="90" height="30" as="geometry" />
        </mxCell>
        <mxCell id="FIgywxml-i0kktG_qFRa-54" value="" style="rounded=0;whiteSpace=wrap;html=1;fillColor=#f5f5f5;strokeColor=#666666;fontColor=#333333;" vertex="1" parent="1">
          <mxGeometry x="553.38" y="90" width="60" height="20" as="geometry" />
        </mxCell>
        <mxCell id="FIgywxml-i0kktG_qFRa-55" value="" style="rounded=0;whiteSpace=wrap;html=1;fillColor=#f5f5f5;strokeColor=#666666;fontColor=#333333;" vertex="1" parent="1">
          <mxGeometry x="427.88" y="571" width="60" height="20" as="geometry" />
        </mxCell>
        <mxCell id="FIgywxml-i0kktG_qFRa-56" value="" style="verticalLabelPosition=bottom;html=1;verticalAlign=top;align=center;shape=mxgraph.floorplan.window;rotation=-180;" vertex="1" parent="1">
          <mxGeometry x="432.88" y="826" width="80" height="10" as="geometry" />
        </mxCell>
        <mxCell id="FIgywxml-i0kktG_qFRa-57" value="" style="rounded=0;whiteSpace=wrap;html=1;strokeColor=#999999;strokeWidth=2;fillColor=#000000;rotation=90;" vertex="1" parent="1">
          <mxGeometry x="290" y="303" width="120" height="60" as="geometry" />
        </mxCell>
        <mxCell id="FIgywxml-i0kktG_qFRa-58" value="" style="rounded=1;whiteSpace=wrap;html=1;strokeWidth=1;fillColor=#874400;glass=0;shadow=0;sketch=0;arcSize=7;" vertex="1" parent="1">
          <mxGeometry x="401.37" y="250.5" width="80" height="80.5" as="geometry" />
        </mxCell>
        <mxCell id="FIgywxml-i0kktG_qFRa-61" value="" style="rounded=1;whiteSpace=wrap;html=1;strokeWidth=1;fillColor=#874400;glass=0;shadow=0;sketch=0;arcSize=7;" vertex="1" parent="1">
          <mxGeometry x="401.37" y="331" width="80" height="80.5" as="geometry" />
        </mxCell>
        <mxCell id="FIgywxml-i0kktG_qFRa-62" value="" style="rounded=1;whiteSpace=wrap;html=1;strokeWidth=1;fillColor=#874400;glass=0;shadow=0;sketch=0;arcSize=7;" vertex="1" parent="1">
          <mxGeometry x="321.37" y="414" width="80" height="80.5" as="geometry" />
        </mxCell>
        <mxCell id="FIgywxml-i0kktG_qFRa-63" value="" style="rounded=1;whiteSpace=wrap;html=1;strokeWidth=1;fillColor=#874400;glass=0;shadow=0;sketch=0;arcSize=7;" vertex="1" parent="1">
          <mxGeometry x="401.37" y="411.5" width="80" height="80.5" as="geometry" />
        </mxCell>
        <mxCell id="FIgywxml-i0kktG_qFRa-64" value="" style="rounded=1;whiteSpace=wrap;html=1;strokeWidth=1;fillColor=#874400;glass=0;shadow=0;sketch=0;arcSize=7;" vertex="1" parent="1">
          <mxGeometry x="314.37" y="160" width="165" height="90.25" as="geometry" />
        </mxCell>
        <mxCell id="FIgywxml-i0kktG_qFRa-66" value="" style="rounded=1;whiteSpace=wrap;html=1;strokeWidth=1;fillColor=#874400;rotation=90;" vertex="1" parent="1">
          <mxGeometry x="431.75" y="115.62" width="15" height="86.75" as="geometry" />
        </mxCell>
        <mxCell id="FIgywxml-i0kktG_qFRa-67" value="" style="rounded=1;whiteSpace=wrap;html=1;strokeWidth=1;fillColor=#874400;rotation=-90;" vertex="1" parent="1">
          <mxGeometry x="387.37" y="411" width="15" height="177" as="geometry" />
        </mxCell>
        <mxCell id="FIgywxml-i0kktG_qFRa-68" value="" style="rounded=1;whiteSpace=wrap;html=1;strokeWidth=1;fillColor=#874400;rotation=0;" vertex="1" parent="1">
          <mxGeometry x="306.37" y="420" width="15" height="72" as="geometry" />
        </mxCell>
        <mxCell id="FIgywxml-i0kktG_qFRa-65" value="" style="rounded=1;whiteSpace=wrap;html=1;strokeWidth=1;fillColor=#874400;" vertex="1" parent="1">
          <mxGeometry x="479.37" y="150.5" width="15" height="356.5" as="geometry" />
        </mxCell>
        <mxCell id="FIgywxml-i0kktG_qFRa-70" value="" style="verticalLabelPosition=bottom;html=1;verticalAlign=top;align=center;shape=mxgraph.floorplan.chair;shadow=0;rounded=1;glass=0;sketch=0;strokeColor=#000000;strokeWidth=1;fillColor=#FFB70F;" vertex="1" parent="1">
          <mxGeometry x="727.88" y="670" width="40" height="52" as="geometry" />
        </mxCell>
        <mxCell id="FIgywxml-i0kktG_qFRa-71" value="" style="verticalLabelPosition=bottom;html=1;verticalAlign=top;align=center;shape=mxgraph.floorplan.chair;shadow=0;direction=west;rounded=1;glass=0;sketch=0;strokeColor=#000000;strokeWidth=1;fillColor=#FFB70F;" vertex="1" parent="1">
          <mxGeometry x="727.88" y="758" width="40" height="52" as="geometry" />
        </mxCell>
        <mxCell id="FIgywxml-i0kktG_qFRa-72" value="" style="verticalLabelPosition=bottom;html=1;verticalAlign=top;align=center;shape=mxgraph.floorplan.chair;shadow=0;direction=north;rounded=1;glass=0;sketch=0;strokeColor=#000000;strokeWidth=1;fillColor=#FFB70F;" vertex="1" parent="1">
          <mxGeometry x="677.88" y="720" width="52" height="40" as="geometry" />
        </mxCell>
        <mxCell id="FIgywxml-i0kktG_qFRa-73" value="" style="verticalLabelPosition=bottom;html=1;verticalAlign=top;align=center;shape=mxgraph.floorplan.chair;shadow=0;direction=south;rounded=1;glass=0;sketch=0;strokeColor=#000000;strokeWidth=1;fillColor=#FFB70F;" vertex="1" parent="1">
          <mxGeometry x="765.88" y="720" width="52" height="40" as="geometry" />
        </mxCell>
        <mxCell id="FIgywxml-i0kktG_qFRa-74" value="" style="shape=ellipse;shadow=0;rounded=1;glass=0;sketch=0;strokeColor=#000000;strokeWidth=1;fillColor=#FFB70F;" vertex="1" parent="1">
          <mxGeometry x="697.88" y="690" width="100" height="100" as="geometry" />
        </mxCell>
        <mxCell id="FIgywxml-i0kktG_qFRa-77" value="" style="shape=link;html=1;strokeWidth=2;" edge="1" parent="1">
          <mxGeometry width="100" relative="1" as="geometry">
            <mxPoint x="687.88" y="603" as="sourcePoint" />
            <mxPoint x="787.88" y="603" as="targetPoint" />
          </mxGeometry>
        </mxCell>
        <mxCell id="FIgywxml-i0kktG_qFRa-78" value="" style="rounded=0;whiteSpace=wrap;html=1;shadow=0;glass=0;sketch=0;strokeColor=#000000;strokeWidth=1;fillColor=#4A4A4A;" vertex="1" parent="1">
          <mxGeometry x="650" width="180" height="78" as="geometry" />
        </mxCell>
        <mxCell id="FIgywxml-i0kktG_qFRa-80" value="" style="rounded=0;whiteSpace=wrap;html=1;shadow=0;glass=0;sketch=0;strokeColor=#666666;strokeWidth=1;fillColor=#f5f5f5;fontColor=#333333;" vertex="1" parent="1">
          <mxGeometry x="208" y="270" width="52" height="140" as="geometry" />
        </mxCell>
        <mxCell id="FIgywxml-i0kktG_qFRa-82" value="" style="rounded=0;whiteSpace=wrap;html=1;shadow=0;glass=0;sketch=0;strokeWidth=1;fillColor=#080808;opacity=40;strokeColor=none;" vertex="1" parent="1">
          <mxGeometry x="90" y="18" width="560" height="60" as="geometry" />
        </mxCell>
        <mxCell id="FIgywxml-i0kktG_qFRa-88" value="" style="shape=image;html=1;verticalAlign=top;verticalLabelPosition=bottom;labelBackgroundColor=#ffffff;imageAspect=0;aspect=fixed;image=https://cdn3.iconfinder.com/data/icons/spring-23/32/tulip-flower-spring-blossom-ecology-nature-floral-128.png;rounded=1;shadow=0;glass=0;sketch=0;strokeColor=#000000;strokeWidth=1;fillColor=#080808;gradientColor=none;opacity=40;" vertex="1" parent="1">
          <mxGeometry x="160" y="30" width="38" height="38" as="geometry" />
        </mxCell>
        <mxCell id="FIgywxml-i0kktG_qFRa-89" value="" style="shape=image;html=1;verticalAlign=top;verticalLabelPosition=bottom;labelBackgroundColor=#ffffff;imageAspect=0;aspect=fixed;image=https://cdn3.iconfinder.com/data/icons/spring-23/32/tulip-flower-spring-blossom-ecology-nature-floral-128.png;rounded=1;shadow=0;glass=0;sketch=0;strokeColor=#000000;strokeWidth=1;fillColor=#080808;gradientColor=none;opacity=40;" vertex="1" parent="1">
          <mxGeometry x="209" y="30" width="38" height="38" as="geometry" />
        </mxCell>
        <mxCell id="FIgywxml-i0kktG_qFRa-90" value="" style="shape=image;html=1;verticalAlign=top;verticalLabelPosition=bottom;labelBackgroundColor=#ffffff;imageAspect=0;aspect=fixed;image=https://cdn3.iconfinder.com/data/icons/spring-23/32/tulip-flower-spring-blossom-ecology-nature-floral-128.png;rounded=1;shadow=0;glass=0;sketch=0;strokeColor=#000000;strokeWidth=1;fillColor=#080808;gradientColor=none;opacity=40;" vertex="1" parent="1">
          <mxGeometry x="259" y="30" width="38" height="38" as="geometry" />
        </mxCell>
        <mxCell id="FIgywxml-i0kktG_qFRa-91" value="" style="shape=image;html=1;verticalAlign=top;verticalLabelPosition=bottom;labelBackgroundColor=#ffffff;imageAspect=0;aspect=fixed;image=https://cdn3.iconfinder.com/data/icons/spring-23/32/tulip-flower-spring-blossom-ecology-nature-floral-128.png;rounded=1;shadow=0;glass=0;sketch=0;strokeColor=#000000;strokeWidth=1;fillColor=#080808;gradientColor=none;opacity=40;" vertex="1" parent="1">
          <mxGeometry x="308" y="30" width="38" height="38" as="geometry" />
        </mxCell>
        <mxCell id="FIgywxml-i0kktG_qFRa-92" value="" style="shape=image;html=1;verticalAlign=top;verticalLabelPosition=bottom;labelBackgroundColor=#ffffff;imageAspect=0;aspect=fixed;image=https://cdn3.iconfinder.com/data/icons/spring-23/32/tulip-flower-spring-blossom-ecology-nature-floral-128.png;rounded=1;shadow=0;glass=0;sketch=0;strokeColor=#000000;strokeWidth=1;fillColor=#080808;gradientColor=none;opacity=40;" vertex="1" parent="1">
          <mxGeometry x="457" y="30" width="38" height="38" as="geometry" />
        </mxCell>
        <mxCell id="FIgywxml-i0kktG_qFRa-93" value="" style="shape=image;html=1;verticalAlign=top;verticalLabelPosition=bottom;labelBackgroundColor=#ffffff;imageAspect=0;aspect=fixed;image=https://cdn3.iconfinder.com/data/icons/spring-23/32/tulip-flower-spring-blossom-ecology-nature-floral-128.png;rounded=1;shadow=0;glass=0;sketch=0;strokeColor=#000000;strokeWidth=1;fillColor=#080808;gradientColor=none;opacity=40;" vertex="1" parent="1">
          <mxGeometry x="506" y="30" width="38" height="38" as="geometry" />
        </mxCell>
        <mxCell id="FIgywxml-i0kktG_qFRa-94" value="" style="shape=image;html=1;verticalAlign=top;verticalLabelPosition=bottom;labelBackgroundColor=#ffffff;imageAspect=0;aspect=fixed;image=https://cdn3.iconfinder.com/data/icons/spring-23/32/tulip-flower-spring-blossom-ecology-nature-floral-128.png;rounded=1;shadow=0;glass=0;sketch=0;strokeColor=#000000;strokeWidth=1;fillColor=#080808;gradientColor=none;opacity=40;" vertex="1" parent="1">
          <mxGeometry x="556" y="30" width="38" height="38" as="geometry" />
        </mxCell>
        <mxCell id="FIgywxml-i0kktG_qFRa-95" value="" style="shape=image;html=1;verticalAlign=top;verticalLabelPosition=bottom;labelBackgroundColor=#ffffff;imageAspect=0;aspect=fixed;image=https://cdn3.iconfinder.com/data/icons/spring-23/32/tulip-flower-spring-blossom-ecology-nature-floral-128.png;rounded=1;shadow=0;glass=0;sketch=0;strokeColor=#000000;strokeWidth=1;fillColor=#080808;gradientColor=none;opacity=40;" vertex="1" parent="1">
          <mxGeometry x="605" y="30" width="38" height="38" as="geometry" />
        </mxCell>
        <mxCell id="FIgywxml-i0kktG_qFRa-96" value="" style="shape=image;html=1;verticalAlign=top;verticalLabelPosition=bottom;labelBackgroundColor=#ffffff;imageAspect=0;aspect=fixed;image=https://cdn3.iconfinder.com/data/icons/spring-23/32/tulip-flower-spring-blossom-ecology-nature-floral-128.png;rounded=1;shadow=0;glass=0;sketch=0;strokeColor=#000000;strokeWidth=1;fillColor=#080808;gradientColor=none;opacity=40;" vertex="1" parent="1">
          <mxGeometry x="407" y="30" width="38" height="38" as="geometry" />
        </mxCell>
        <mxCell id="FIgywxml-i0kktG_qFRa-97" value="" style="shape=image;html=1;verticalAlign=top;verticalLabelPosition=bottom;labelBackgroundColor=#ffffff;imageAspect=0;aspect=fixed;image=https://cdn3.iconfinder.com/data/icons/spring-23/32/tulip-flower-spring-blossom-ecology-nature-floral-128.png;rounded=1;shadow=0;glass=0;sketch=0;strokeColor=#000000;strokeWidth=1;fillColor=#080808;gradientColor=none;opacity=40;" vertex="1" parent="1">
          <mxGeometry x="358" y="30" width="38" height="38" as="geometry" />
        </mxCell>
        <mxCell id="FIgywxml-i0kktG_qFRa-98" value="" style="shape=image;html=1;verticalAlign=top;verticalLabelPosition=bottom;labelBackgroundColor=#ffffff;imageAspect=0;aspect=fixed;image=https://cdn3.iconfinder.com/data/icons/spring-2-1/30/Rose-128.png;rounded=1;shadow=0;glass=0;sketch=0;strokeColor=#000000;strokeWidth=1;fillColor=#080808;gradientColor=none;opacity=40;" vertex="1" parent="1">
          <mxGeometry x="120" y="420" width="48" height="48" as="geometry" />
        </mxCell>
        <mxCell id="FIgywxml-i0kktG_qFRa-99" value="" style="shape=image;html=1;verticalAlign=top;verticalLabelPosition=bottom;labelBackgroundColor=#ffffff;imageAspect=0;aspect=fixed;image=https://cdn3.iconfinder.com/data/icons/spring-2-1/30/Rose-128.png;rounded=1;shadow=0;glass=0;sketch=0;strokeColor=#000000;strokeWidth=1;fillColor=#080808;gradientColor=none;rotation=-30;opacity=40;" vertex="1" parent="1">
          <mxGeometry x="90" y="430" width="48" height="48" as="geometry" />
        </mxCell>
        <mxCell id="FIgywxml-i0kktG_qFRa-100" value="" style="shape=image;html=1;verticalAlign=top;verticalLabelPosition=bottom;labelBackgroundColor=#ffffff;imageAspect=0;aspect=fixed;image=https://cdn3.iconfinder.com/data/icons/spring-2-1/30/Rose-128.png;rounded=1;shadow=0;glass=0;sketch=0;strokeColor=#000000;strokeWidth=1;fillColor=#080808;gradientColor=none;rotation=15;opacity=40;" vertex="1" parent="1">
          <mxGeometry x="150" y="420" width="48" height="48" as="geometry" />
        </mxCell>
        <mxCell id="FIgywxml-i0kktG_qFRa-101" value="" style="rounded=0;whiteSpace=wrap;html=1;shadow=0;glass=0;sketch=0;strokeWidth=1;fillColor=#080808;opacity=40;strokeColor=none;" vertex="1" parent="1">
          <mxGeometry x="831" y="18" width="679" height="60" as="geometry" />
        </mxCell>
        <mxCell id="FIgywxml-i0kktG_qFRa-102" value="" style="verticalLabelPosition=bottom;html=1;verticalAlign=top;align=center;shape=mxgraph.floorplan.plant;rounded=1;shadow=0;glass=0;sketch=0;strokeColor=#82b366;strokeWidth=1;fillColor=#d5e8d4;opacity=40;" vertex="1" parent="1">
          <mxGeometry x="1120" width="60" height="81" as="geometry" />
        </mxCell>
        <mxCell id="FIgywxml-i0kktG_qFRa-103" value="" style="shape=image;html=1;verticalAlign=top;verticalLabelPosition=bottom;labelBackgroundColor=#ffffff;imageAspect=0;aspect=fixed;image=https://cdn3.iconfinder.com/data/icons/spring-23/32/tulip-flower-spring-blossom-ecology-nature-floral-128.png;rounded=1;shadow=0;glass=0;sketch=0;strokeColor=#000000;strokeWidth=1;fillColor=#080808;gradientColor=none;opacity=40;" vertex="1" parent="1">
          <mxGeometry x="890" y="30" width="38" height="38" as="geometry" />
        </mxCell>
        <mxCell id="FIgywxml-i0kktG_qFRa-104" value="" style="shape=image;html=1;verticalAlign=top;verticalLabelPosition=bottom;labelBackgroundColor=#ffffff;imageAspect=0;aspect=fixed;image=https://cdn3.iconfinder.com/data/icons/spring-23/32/tulip-flower-spring-blossom-ecology-nature-floral-128.png;rounded=1;shadow=0;glass=0;sketch=0;strokeColor=#000000;strokeWidth=1;fillColor=#080808;gradientColor=none;opacity=40;" vertex="1" parent="1">
          <mxGeometry x="939" y="30" width="38" height="38" as="geometry" />
        </mxCell>
        <mxCell id="FIgywxml-i0kktG_qFRa-105" value="" style="shape=image;html=1;verticalAlign=top;verticalLabelPosition=bottom;labelBackgroundColor=#ffffff;imageAspect=0;aspect=fixed;image=https://cdn3.iconfinder.com/data/icons/spring-23/32/tulip-flower-spring-blossom-ecology-nature-floral-128.png;rounded=1;shadow=0;glass=0;sketch=0;strokeColor=#000000;strokeWidth=1;fillColor=#080808;gradientColor=none;opacity=40;" vertex="1" parent="1">
          <mxGeometry x="989" y="30" width="38" height="38" as="geometry" />
        </mxCell>
        <mxCell id="FIgywxml-i0kktG_qFRa-106" value="" style="shape=image;html=1;verticalAlign=top;verticalLabelPosition=bottom;labelBackgroundColor=#ffffff;imageAspect=0;aspect=fixed;image=https://cdn3.iconfinder.com/data/icons/spring-23/32/tulip-flower-spring-blossom-ecology-nature-floral-128.png;rounded=1;shadow=0;glass=0;sketch=0;strokeColor=#000000;strokeWidth=1;fillColor=#080808;gradientColor=none;opacity=40;" vertex="1" parent="1">
          <mxGeometry x="840" y="30" width="38" height="38" as="geometry" />
        </mxCell>
        <mxCell id="FIgywxml-i0kktG_qFRa-107" value="" style="rounded=0;whiteSpace=wrap;html=1;shadow=0;glass=0;sketch=0;strokeWidth=1;fillColor=#080808;opacity=40;strokeColor=none;rotation=90;" vertex="1" parent="1">
          <mxGeometry x="1389.25" y="137.75" width="183.5" height="63" as="geometry" />
        </mxCell>
      </root>
    </mxGraphModel>
  </diagram>
</mxfile>
